<svg width="81" height="81" viewBox="0 0 81 81" fill="none" xmlns="http://www.w3.org/2000/svg">
<g filter="url(#filter0_d_55_401)">
<circle cx="40.5" cy="36.5" r="32.5" fill="#F0F4F7"/>
<g filter="url(#filter1_d_55_401)">
<path fill-rule="evenodd" clip-rule="evenodd" d="M46.1714 14.3085C51.5225 15.7423 56.1665 19.0794 59.2322 23.6937C61.7638 27.5041 63.0755 31.9691 63.0323 36.5H53.9316C53.9752 33.7518 53.1877 31.0401 51.6526 28.7295C49.8132 25.961 47.0268 23.9587 43.8161 23.0984L46.1714 14.3085ZM26.6349 36.5H17.5342C17.4894 31.8044 18.8998 27.1877 21.6021 23.2996C24.7638 18.7506 29.4767 15.5115 34.8566 14.19L37.0273 23.0274C33.7993 23.8202 30.9716 25.7637 29.0746 28.4931C27.4366 30.8499 26.5897 33.6528 26.6349 36.5ZM34.3952 58.6915C29.0441 57.2577 24.4001 53.9206 21.3344 49.3063C18.8028 45.4959 17.4911 41.0309 17.5343 36.5H26.635C26.5914 39.2482 27.3789 41.9599 28.914 44.2705C30.7534 47.039 33.5398 49.0413 36.7505 49.9016L34.3952 58.6915ZM51.492 44.5069C53.1301 42.1501 53.9769 39.3472 53.9317 36.5H63.0324C63.0772 41.1956 61.6668 45.8123 58.9645 49.7004C55.8028 54.2495 51.0899 57.4885 45.71 58.81L43.5393 49.9727C46.7673 49.1798 49.595 47.2363 51.492 44.5069Z" fill="#3AB6EC"/>
</g>
</g>
<defs>
<filter id="filter0_d_55_401" x="0" y="0" width="81" height="81" filterUnits="userSpaceOnUse" color-interpolation-filters="sRGB">
<feFlood flood-opacity="0" result="BackgroundImageFix"/>
<feColorMatrix in="SourceAlpha" type="matrix" values="0 0 0 0 0 0 0 0 0 0 0 0 0 0 0 0 0 0 127 0" result="hardAlpha"/>
<feOffset dy="4"/>
<feGaussianBlur stdDeviation="4"/>
<feComposite in2="hardAlpha" operator="out"/>
<feColorMatrix type="matrix" values="0 0 0 0 0 0 0 0 0 0 0 0 0 0 0 0 0 0 0.25 0"/>
<feBlend mode="normal" in2="BackgroundImageFix" result="effect1_dropShadow_55_401"/>
<feBlend mode="normal" in="SourceGraphic" in2="effect1_dropShadow_55_401" result="shape"/>
</filter>
<filter id="filter1_d_55_401" x="13.5332" y="11.19" width="53.5002" height="52.6199" filterUnits="userSpaceOnUse" color-interpolation-filters="sRGB">
<feFlood flood-opacity="0" result="BackgroundImageFix"/>
<feColorMatrix in="SourceAlpha" type="matrix" values="0 0 0 0 0 0 0 0 0 0 0 0 0 0 0 0 0 0 127 0" result="hardAlpha"/>
<feOffset dy="1"/>
<feGaussianBlur stdDeviation="2"/>
<feComposite in2="hardAlpha" operator="out"/>
<feColorMatrix type="matrix" values="0 0 0 0 0 0 0 0 0 0 0 0 0 0 0 0 0 0 0.25 0"/>
<feBlend mode="normal" in2="BackgroundImageFix" result="effect1_dropShadow_55_401"/>
<feBlend mode="normal" in="SourceGraphic" in2="effect1_dropShadow_55_401" result="shape"/>
</filter>
</defs>
</svg>
