<svg width="50" height="50" viewBox="0 0 50 50" fill="none" xmlns="http://www.w3.org/2000/svg">
<path d="M42.375 19.4166L13.2084 4.83332C12.0573 4.26042 10.7576 4.05646 9.48635 4.24926C8.21514 4.44205 7.03432 5.02221 6.10488 5.91064C5.17545 6.79907 4.54264 7.95253 4.29272 9.21375C4.0428 10.475 4.18795 11.7826 4.70836 12.9583L9.70836 24.1458C9.82181 24.4163 9.88024 24.7067 9.88024 25C9.88024 25.2933 9.82181 25.5837 9.70836 25.8541L4.70836 37.0416C4.28482 37.9931 4.10577 39.0354 4.18748 40.0737C4.26919 41.1119 4.60907 42.1133 5.17624 42.9869C5.74341 43.8604 6.51987 44.5783 7.43507 45.0754C8.35028 45.5725 9.3752 45.8331 10.4167 45.8333C11.3922 45.8236 12.3531 45.5958 13.2292 45.1666L42.3959 30.5833C43.4304 30.0629 44.3001 29.2652 44.9077 28.2793C45.5154 27.2934 45.8371 26.1581 45.8371 25C45.8371 23.8419 45.5154 22.7065 44.9077 21.7207C44.3001 20.7348 43.4304 19.9371 42.3959 19.4166H42.375ZM40.5209 26.8542L11.3542 41.4375C10.9712 41.6214 10.5411 41.6838 10.1217 41.6163C9.7022 41.5489 9.31338 41.3548 9.00734 41.0601C8.70131 40.7654 8.49269 40.3842 8.40947 39.9675C8.32624 39.5509 8.37237 39.1188 8.54169 38.7291L13.5209 27.5416C13.5853 27.3923 13.641 27.2392 13.6875 27.0833H28.0417C28.5942 27.0833 29.1241 26.8638 29.5148 26.4731C29.9055 26.0824 30.125 25.5525 30.125 25C30.125 24.4474 29.9055 23.9175 29.5148 23.5268C29.1241 23.1361 28.5942 22.9166 28.0417 22.9166H13.6875C13.641 22.7607 13.5853 22.6077 13.5209 22.4583L8.54169 11.2708C8.37237 10.8812 8.32624 10.449 8.40947 10.0324C8.49269 9.61579 8.70131 9.23457 9.00734 8.93987C9.31338 8.64517 9.7022 8.45109 10.1217 8.38363C10.5411 8.31618 10.9712 8.37858 11.3542 8.56248L40.5209 23.1458C40.8621 23.3206 41.1485 23.5863 41.3485 23.9134C41.5485 24.2406 41.6543 24.6166 41.6543 25C41.6543 25.3834 41.5485 25.7594 41.3485 26.0866C41.1485 26.4137 40.8621 26.6793 40.5209 26.8542Z" fill="#3AB6EC"/>
</svg>
