<svg width="60" height="60" viewBox="0 0 60 60" fill="none" xmlns="http://www.w3.org/2000/svg">
<path fill-rule="evenodd" clip-rule="evenodd" d="M18.5113 43.3925C27.0675 42.1425 32.9588 42.25 41.5263 43.4363C42.1467 43.5262 42.7137 43.8376 43.1224 44.313C43.5311 44.7884 43.7541 45.3956 43.75 46.0225C43.75 46.6225 43.5437 47.205 43.1712 47.66C42.522 48.4533 41.8569 49.2335 41.1763 50H44.4775C44.685 49.7525 44.8937 49.5 45.105 49.2438C45.8464 48.3345 46.2509 47.197 46.25 46.0238C46.25 43.4925 44.4025 41.3113 41.8687 40.9613C33.0987 39.7475 26.9688 39.6313 18.15 40.92C15.59 41.2938 13.75 43.5088 13.75 46.0575C13.75 47.1888 14.1188 48.3075 14.8175 49.2138C15.0238 49.4813 15.2275 49.7438 15.43 50.0013H18.6512C18.018 49.2431 17.4004 48.4722 16.7988 47.6888C16.4412 47.2198 16.2483 46.646 16.25 46.0563C16.25 44.71 17.2175 43.5813 18.5113 43.3925ZM30 31.25C30.9849 31.25 31.9602 31.056 32.8701 30.6791C33.7801 30.3022 34.6069 29.7497 35.3033 29.0533C35.9997 28.3569 36.5522 27.5301 36.9291 26.6201C37.306 25.7102 37.5 24.7349 37.5 23.75C37.5 22.7651 37.306 21.7898 36.9291 20.8799C36.5522 19.9699 35.9997 19.1431 35.3033 18.4467C34.6069 17.7503 33.7801 17.1978 32.8701 16.8209C31.9602 16.444 30.9849 16.25 30 16.25C28.0109 16.25 26.1032 17.0402 24.6967 18.4467C23.2902 19.8532 22.5 21.7609 22.5 23.75C22.5 25.7391 23.2902 27.6468 24.6967 29.0533C26.1032 30.4598 28.0109 31.25 30 31.25ZM30 33.75C32.6522 33.75 35.1957 32.6964 37.0711 30.8211C38.9464 28.9457 40 26.4022 40 23.75C40 21.0978 38.9464 18.5543 37.0711 16.6789C35.1957 14.8036 32.6522 13.75 30 13.75C27.3478 13.75 24.8043 14.8036 22.9289 16.6789C21.0536 18.5543 20 21.0978 20 23.75C20 26.4022 21.0536 28.9457 22.9289 30.8211C24.8043 32.6964 27.3478 33.75 30 33.75Z" fill="#3AB6EC"/>
<path fill-rule="evenodd" clip-rule="evenodd" d="M30 52.5C42.4263 52.5 52.5 42.4263 52.5 30C52.5 17.5737 42.4263 7.5 30 7.5C17.5737 7.5 7.5 17.5737 7.5 30C7.5 42.4263 17.5737 52.5 30 52.5ZM30 55C43.8075 55 55 43.8075 55 30C55 16.1925 43.8075 5 30 5C16.1925 5 5 16.1925 5 30C5 43.8075 16.1925 55 30 55Z" fill="#3AB6EC"/>
</svg>
